<?xml version="1.0" encoding="UTF-8"?>
<svg id="Calque_2" data-name="Calque 2" xmlns="http://www.w3.org/2000/svg" viewBox="0 0 521.56 396.99">
  <defs>
    <style>
      .cls-1 {
        fill: #fbf8f0;
      }

      .cls-2 {
        fill: #05acff;
      }

      .cls-3 {
        fill: #0d1016;
      }

      .cls-4 {
        fill: #fbb12d;
      }
    </style>
  </defs>
  <g id="Calque_1-2" data-name="Calque 1">
    <path class="cls-1" d="M136.16,86.18c71.46-40.59,164.23-19.01,189.68,63.82,1.72,5.61,5.01,29.82,6.34,31.66,3.02,4.21,16.21,2.04,21.47,2.53,19.79,1.85,32.67,10.42,49.52,18.98,2.15,2.08,3.76,2.84,5,4,5.43,5.1,10.65,10.78,16,16,22.22,29.94,27.69,73.06,14,108-2.7,6.9-12.2,22.1-17,28l-2,2c-1.59,1.83-6.16,6.38-8,8l-2,2c-3.73,3.07-11.8,8.62-16,11-14.77,8.38-31.52,12.11-48.46,13.04-66.29,3.62-141.52.69-208.54-.04.77-3.57,1.79-7.06,2.98-10.52,8.65-25.1,20.79-48.19,34.21-70.79,11.77-19.83,25.77-38.36,35.79-59.25l39.86,21.71c.58,3.12-.65,6.71,1.47,9.55.23.3,5.08,5.14,5.4,5.34,11.73,7.43,27.67-8.49,15.84-21.1-8.29-8.85-16.16.23-19.94-1.02-.35-.12-3.75-3.69-4.87-4.22l-25.74-14.7c6.02-.95,12.18-1.29,18.2-2.31s27.96-6.89,31.36-6.63c1.96.15,4.85,3.99,8.16,4.69,21.13,4.45,23.74-27.2,3.77-26.85-8.43.15-12.55,5.45-14.16,13.14-11.73,3.43-23.77,4.89-35.76,7.04-3.6.64-5.3.47-7.94.86-.45.07-1.31,4.59-4.62.55,12.73-10.9,24.04-23.28,36.01-34.97,1.06-1.04,2.36-3.75,2.92-4.03,1.22-.62,9.39,1.93,13.35-.44.35-.21,5.51-5.45,5.74-5.78,9.77-14.32-15.83-30.58-25.04-15.78-4.66,7.49.37,14.57-.44,16.47l-38.07,37.01c2.11-9,3.45-18.38,5.62-27.37,1.54-6.35,4.68-20.55,7.01-25.78s11.25-1.69,12.81-11.4c2.89-17.99-18.11-26.22-27.36-12.36-6.37,9.55-.84,16.15,5.34,23.35l-12.92,52.58c-2.56.39-1.56-.22-2.09-1.41-3.1-6.86-7.04-18.28-9.38-25.62-.77-2.41-5.44-17.57-5.32-18.53.06-.45,4.83-3.86,5.87-6.88,6.82-19.77-20.68-27.51-27.56-10.56-1.95,4.81-1.99,7.74.64,12.34,3.73,6.51,11.24,5.9,12.7,8.3,1.56,2.59,3.12,12.58,4.44,16.56,3.33,9.99,7.37,19.8,10.71,29.78-1.14,1-23.23-13.81-26.09-15.43-1.16-.66-3.58-.36-3.84-.62-.34-.35-.08-7.55-1.37-9.64-6.71-4.24-8.72-8.35-17.43-5.52-9.47,3.07-10.46,17.99-2.23,23.69,9.87,6.83,16.07-1.89,18.98-1.09,1.74.48,10.29,7.36,13.07,9.04,7.5,4.56,15.03,9.21,22.9,13.07-9.75,21.3-24.03,40.05-35.79,60.21-11.49,19.7-22.79,40.7-30.95,62.05-2.9,7.6-5.54,15.28-7.25,23.25-26.04-.43-48.15.71-72-12-6-3.2-12.41-8.03-18-12l-3-3c-1.98-2.25-4.44-4.18-6-6l-2-2c-4.92-6.18-11.96-16.91-15-24-13.64-31.86-12.12-66.84,5-97,10.51-15.07,25.61-30.1,43-37,3.88-1.54,24.91-5.68,25.82-7.18-.12-18.09,3.88-35.72,9.18-52.82.42-.8,1.36-1.83,2-3,2.48-4.52,4.08-10.49,7-15,3.37-4.99,8.29-12.6,12-17l2-2c2.26-2.52,6.44-6.56,9-9,3.64-3.46,8.54-6.72,12-10ZM369.17,266.17c22.58-13.76,5.76-41.89-11.44-16.92-3.5,5.08-3.67,13.16-6.02,15.98-.63.75-14.77,10.3-16.2,10.9-4.5,1.89-25.72,3.81-19.46,12.48.73,1.01,6.05.86,7.39.54,5.56-1.34,16.81-6.47,22.61-9.56,2.7-1.44,8.07-6.31,10.6-6.32,2.89-.01,6.21,4.44,8.98,5.96,23.91,13.14,24.19-9.2,3.53-13.04ZM310.17,337.19c27.35-7.37,14.41-31.02-6.95-12.45-2.39,2.08-6.47,9.83-7.73,10.27-3.84,1.34-15.44,1.42-19.86,1.2-4.97-.24-13.15-5.03-13.52,2.44-.27,5.58,5.32,5.95,9.68,6.4,6.16.64,21.28-1.67,24.65-.67,2.01.6,8.21,8.2,12.68,10.33,15.41,7.37,24.35-.87,9.51-12.51l-8.47-5.01ZM207.79,340.25c-6.59,2.18,4.77,14.13,7.46,16.34,3.86,3.17,25.02,15.41,23.96,4.14-.28-2.96-13.51-8.45-17.18-10.92-3.3-2.22-10.92-10.66-14.24-9.56Z"/>
    <path class="cls-4" d="M375,67.43c61.83-2.18,105.7,64.98,73.58,119.67-2.04,3.48-13.01,18.24-16.13,18.97-2.06.48-15.84-12.45-18.96-14.72-13.33-9.67-30.29-18.16-46.5-21.5-3.83-.79-20.25-1.97-21.38-3.62-2.3-19.48-9.97-37.38-20.04-53.96-1.41-2.32-9.1-11.97-9.24-12.74-.42-2.38,9.06-11.46,11.3-13.37,12.51-10.67,30.8-18.14,47.36-18.73Z"/>
    <path class="cls-4" d="M385.16,4.18v44c-4.76,4.62-11.78,2.23-14-4V6.18c2.55-6.9,9.77-8.65,14-2Z"/>
    <path class="cls-4" d="M471.89,186.37c3.04-.88,5.52.41,8.25,1.33,4.53,1.52,24.44,11.34,27.95,14.05,6.59,5.09,3.41,15.17-6.75,12.76-3.34-.79-27.36-12.71-30.13-14.88-4.95-3.9-5.41-11.49.67-13.25Z"/>
    <path class="cls-4" d="M290.9,31.37c2.68-.59,4.99-.3,7.21,1.36,1.34,1,20.18,24.52,20.93,26.06,4.14,8.51-3.58,16.13-10.92,9.92-1.45-1.23-20.1-24.66-20.81-26.18-1.93-4.14-1.8-9.97,3.59-11.17Z"/>
    <path class="cls-4" d="M465.81,31.48c5.84-.3,9.58,6.07,6.22,11.08-6.46,4.95-16.56,24.33-22.31,27.67-7.1,4.12-12.81-2.22-9.4-10.4,1.19-2.85,19.61-25.74,21.94-27.07,1.04-.59,2.37-1.23,3.56-1.29Z"/>
    <path class="cls-4" d="M506.92,111.44c2.88-.35,10.86-1.06,12.77.71,2.92,2.71,2.35,8.57-1.22,10.84-1.64,1.04-31.12,8.13-33.85,8.22-9.92.36-11.09-9.81-4.37-13.45,2.21-1.2,23.2-5.89,26.69-6.32Z"/>
    <path class="cls-3" d="M113.16,107.18c.78-.92,1.46-1.4,2-2l-2,2Z"/>
    <path class="cls-2" d="M125.16,395.18c1.71-7.97,4.35-15.65,7.25-23.25,8.16-21.35,19.46-42.35,30.95-62.05,11.75-20.16,26.04-38.91,35.79-60.21-7.87-3.87-15.4-8.52-22.9-13.07-2.77-1.69-11.32-8.56-13.07-9.04-2.91-.8-9.11,7.92-18.98,1.09-8.23-5.7-7.23-20.62,2.23-23.69,8.71-2.83,10.72,1.28,17.43,5.52,1.29,2.09,1.03,9.29,1.37,9.64.26.26,2.67-.04,3.84.62,2.86,1.62,24.95,16.43,26.09,15.43-3.33-9.99-7.38-19.79-10.71-29.78-1.32-3.97-2.88-13.97-4.44-16.56-1.45-2.41-8.97-1.79-12.7-8.3-2.63-4.6-2.59-7.54-.64-12.34,6.89-16.94,34.38-9.2,27.56,10.56-1.04,3.02-5.81,6.43-5.87,6.88-.12.96,4.55,16.12,5.32,18.53,2.34,7.34,6.27,18.75,9.38,25.62.54,1.19-.46,1.8,2.09,1.41l12.92-52.58c-6.17-7.2-11.71-13.8-5.34-23.35,9.24-13.86,30.24-5.63,27.36,12.36-1.56,9.71-10.59,6.43-12.81,11.4-2.33,5.23-5.47,19.43-7.01,25.78-2.17,8.98-3.51,18.37-5.62,27.37l38.07-37.01c.81-1.9-4.22-8.98.44-16.47,9.22-14.8,34.81,1.45,25.04,15.78-.23.34-5.39,5.57-5.74,5.78-3.96,2.37-12.13-.18-13.35.44-.56.28-1.86,3-2.92,4.03-11.97,11.69-23.28,24.07-36.01,34.97,3.31,4.04,4.17-.48,4.62-.55,2.64-.39,4.34-.21,7.94-.86,11.99-2.14,24.03-3.61,35.76-7.04,1.61-7.69,5.74-12.99,14.16-13.14,19.97-.35,17.36,31.3-3.77,26.85-3.32-.7-6.2-4.54-8.16-4.69-3.4-.26-25.42,5.63-31.36,6.63s-12.18,1.36-18.2,2.31l25.74,14.7c1.12.53,4.52,4.11,4.87,4.22,3.77,1.25,11.64-7.83,19.94,1.02,11.82,12.61-4.11,28.53-15.84,21.1-.32-.2-5.18-5.04-5.4-5.34-2.11-2.84-.88-6.43-1.47-9.55l-39.86-21.71c-10.01,20.88-24.01,39.42-35.79,59.25-13.42,22.6-25.56,45.69-34.21,70.79-1.19,3.45-2.21,6.95-2.98,10.52-3.66-.04-7.34.06-11,0Z"/>
    <path class="cls-2" d="M369.17,266.17c20.66,3.84,20.39,26.18-3.53,13.04-2.77-1.52-6.08-5.97-8.98-5.96-2.53,0-7.91,4.89-10.6,6.32-5.81,3.09-17.06,8.22-22.61,9.56-1.35.32-6.66.48-7.39-.54-6.26-8.67,14.95-10.58,19.46-12.48,1.43-.6,15.57-10.15,16.2-10.9,2.35-2.82,2.52-10.89,6.02-15.98,17.2-24.97,34.02,3.16,11.44,16.92Z"/>
    <path class="cls-2" d="M310.17,337.19l8.47,5.01c14.84,11.64,5.9,19.88-9.51,12.51-4.47-2.13-10.67-9.73-12.68-10.33-3.38-1-18.5,1.3-24.65.67-4.36-.45-9.96-.82-9.68-6.4.37-7.47,8.55-2.68,13.52-2.44,4.42.21,16.02.14,19.86-1.2,1.26-.44,5.34-8.19,7.73-10.27,21.36-18.57,34.3,5.08,6.95,12.45Z"/>
    <path class="cls-2" d="M207.79,340.25c3.33-1.1,10.94,7.33,14.24,9.56,3.66,2.47,16.9,7.96,17.18,10.92,1.06,11.28-20.1-.97-23.96-4.14-2.69-2.2-14.05-14.16-7.46-16.34Z"/>
  </g>
</svg>